<svg xmlns="http://www.w3.org/2000/svg" viewBox="0 0 24 24" fill="currentColor" class="icon">
  <!-- Microphone Off (with slash) -->
  <path d="M19 11h-1.7c0 0.74-0.16 1.43-0.43 2.05l1.23 1.23c0.56-0.98 0.9-2.09 0.9-3.28zM4.27 3L3 4.27l6.01 6.01V11c0 1.66 1.33 3 2.99 3c0.22 0 0.44-0.03 0.65-0.08l2.91 2.91c-1.03 0.74-2.25 1.17-3.56 1.17c-3.53 0-6.43-2.61-6.92-6H3c0.49 4.5 4.05 8.08 8.5 8.58V21h1v-2.92c0.37-0.04 0.74-0.1 1.09-0.18l3.14 3.14l1.27-1.27L4.27 3zM12 13c-0.55 0-1-0.45-1-1v-0.73l2 2V13zM15 5v4.27l-2-2V5c0-1.1-0.9-2-2-2c-0.51 0-0.98 0.21-1.32 0.54L8.27 2.14C9.17 1.43 10.51 1 12 1c2.21 0 4 1.79 4 4z" fill="#999" opacity="0.7"/>
  <line x1="2" y1="2" x2="22" y2="22" stroke="currentColor" stroke-width="2"/>
</svg>
