<svg xmlns="http://www.w3.org/2000/svg" viewBox="0 0 24 24" fill="currentColor" class="icon">
  <!-- Rocket -->
  <path d="M13.17 2.5c0.42 0 0.84-0.16 1.17-0.49l1.07 1.07c0.29 0.29 0.77 0.29 1.06 0 0.29-0.29 0.29-0.77 0-1.06l-1.07-1.07C15.66 0.16 15.24 0 14.82 0H9.18c-0.42 0-0.84 0.16-1.17 0.49L6.94 1.56c-0.29 0.29-0.77 0.29-1.06 0-0.29-0.29-0.29-0.77 0-1.06l1.07-1.07C8.34 0.16 8.76 0 9.18 0h5.64zM12 6c-1.1 0-2 0.9-2 2s0.9 2 2 2 2-0.9 2-2-0.9-2-2-2zm9.5 10.5l-4-4V8c0-1.66-1.34-3-3-3s-3 1.34-3 3v4.5l-4 4c-0.29 0.29-0.29 0.77 0 1.06 0.29 0.29 0.77 0.29 1.06 0L12 18.06l4.44 3.5c0.29 0.29 0.77 0.29 1.06 0 0.29-0.29 0.29-0.77 0-1.06z" fill="#FF6D00"/>
</svg>
